<?xml version="1.0" encoding="UTF-8"?>
<!DOCTYPE svg PUBLIC "-//W3C//DTD SVG 1.1//EN"
  "http://www.w3.org/Graphics/SVG/1.1/DTD/svg11.dtd">
<svg xmlns="http://www.w3.org/2000/svg" width="2in" height="2in" viewBox="-1 -1 2 2">
    <style>path { fill-rule: evenodd; }</style>
    <path d="M-0.00968246,-0.0025 L-0.0198431,-0.0025 A0.02,0.02,0,0,1,-0.0025,-0.0198431 L-0.0025,-0.00968246 A0.01,0.01,0,0,0,-0.00968246,-0.0025 Z" fill="black"/>
    <path d="M0.0025,-0.00968246 L0.0025,-0.0198431 A0.02,0.02,0,0,1,0.0198431,-0.0025 L0.00968246,-0.0025 A0.01,0.01,0,0,0,0.0025,-0.00968246 Z" fill="black"/>
    <path d="M-0.0198431,0.0025 L-0.00968246,0.0025 A0.01,0.01,0,0,0,-0.0025,0.00968246 L-0.0025,0.0198431 A0.02,0.02,0,0,1,-0.0198431,0.0025 Z" fill="black"/>
    <path d="M0.0025,0.0198431 L0.0025,0.00968246 A0.01,0.01,0,0,0,0.00968246,0.0025 L0.0198431,0.0025 A0.02,0.02,0,0,1,0.0025,0.0198431 Z" fill="black"/>
</svg>
